<?xml version="1.0" encoding="utf-8"?>
<svg version="1.1" id="Calque_1" x="0px" y="0px" viewBox="229.238 148.87 382.607 226.139" style="enable-background:new 0 0 841.89 595.28;" xmlns="http://www.w3.org/2000/svg">
  <style type="text/css">
	.st0{fill:url(#SVGID_1_);stroke:url(#SVGID_2_);stroke-miterlimit:10;}
	.st1{fill:url(#SVGID_3_);stroke:url(#SVGID_4_);stroke-miterlimit:10;}
	.st2{fill:url(#SVGID_5_);stroke:url(#SVGID_6_);stroke-miterlimit:10;}
	.st3{fill:#045A7D;}
	.st4{fill:#E24812;}
</style>
  <g>
    <linearGradient id="SVGID_1_" gradientUnits="userSpaceOnUse" x1="236.9449" y1="291.1611" x2="376.5656" y2="291.1611">
      <stop offset="0.1443" style="stop-color:#19BAE5"/>
      <stop offset="0.3443" style="stop-color:#0096BD"/>
      <stop offset="0.5687" style="stop-color:#007599"/>
      <stop offset="0.7399" style="stop-color:#026185"/>
      <stop offset="0.8363" style="stop-color:#055B7D"/>
      <stop offset="1" style="stop-color:#055B7D"/>
    </linearGradient>
    <linearGradient id="SVGID_2_" gradientUnits="userSpaceOnUse" x1="236.4449" y1="291.1611" x2="377.0656" y2="291.1611">
      <stop offset="0.1443" style="stop-color:#19BAE5"/>
      <stop offset="0.3443" style="stop-color:#0096BD"/>
      <stop offset="0.5687" style="stop-color:#007599"/>
      <stop offset="0.7399" style="stop-color:#026185"/>
      <stop offset="0.8363" style="stop-color:#055B7D"/>
      <stop offset="1" style="stop-color:#055B7D"/>
    </linearGradient>
    <path class="st0" d="M270.28,232.97c11.55-6.73,23.49-10.09,35.81-10.09c13.2,0,25.59,3.37,37.15,10.09 c22.22,12.96,33.33,32.13,33.33,57.53s-10.28,44.57-30.86,57.52c-11.93,7.62-24.89,11.43-38.85,11.43 c-13.59,0-25.9-3.36-36.95-10.09c-21.97-13.33-32.95-32.64-32.95-57.91C236.94,265.54,248.05,246.05,270.28,232.97z M250.85,290.88 c0,9.53,2.1,18.41,6.29,26.67c10.03,19.68,26.67,29.52,49.9,29.52c22.73,0,39.17-9.84,49.34-29.52c4.19-8.26,6.29-17.21,6.29-26.86 c0-8.13-1.43-15.59-4.29-22.38c-2.86-6.79-6.76-12.64-11.72-17.53c-4.95-4.89-10.83-8.7-17.62-11.43 c-6.79-2.73-14.19-4.09-22.19-4.09c-22.86,0-39.17,9.33-48.95,28C253.2,272.27,250.85,281.48,250.85,290.88z"/>
    <linearGradient id="SVGID_3_" gradientUnits="userSpaceOnUse" x1="352.1414" y1="307.0875" x2="439.7628" y2="307.0875">
      <stop offset="0.1443" style="stop-color:#19BAE5"/>
      <stop offset="0.3443" style="stop-color:#0096BD"/>
      <stop offset="0.5687" style="stop-color:#007599"/>
      <stop offset="0.7399" style="stop-color:#026185"/>
      <stop offset="0.8363" style="stop-color:#055B7D"/>
      <stop offset="1" style="stop-color:#055B7D"/>
    </linearGradient>
    <linearGradient id="SVGID_4_" gradientUnits="userSpaceOnUse" x1="351.1682" y1="307.0875" x2="440.7408" y2="307.0875">
      <stop offset="0.1443" style="stop-color:#19BAE5"/>
      <stop offset="0.3443" style="stop-color:#0096BD"/>
      <stop offset="0.5687" style="stop-color:#007599"/>
      <stop offset="0.7399" style="stop-color:#026185"/>
      <stop offset="0.8363" style="stop-color:#055B7D"/>
      <stop offset="1" style="stop-color:#055B7D"/>
    </linearGradient>
    <path class="st1" d="M361.67,267.66v-10.48h78.1l-64.39,89.14h61.15v10.67h-84.38l64-89.33H361.67z"/>
    <linearGradient id="SVGID_5_" gradientUnits="userSpaceOnUse" x1="415.7769" y1="255.0652" x2="515.9709" y2="255.0652">
      <stop offset="0.1443" style="stop-color:#19BAE5"/>
      <stop offset="0.3443" style="stop-color:#0096BD"/>
      <stop offset="0.5687" style="stop-color:#007599"/>
      <stop offset="0.7399" style="stop-color:#026185"/>
      <stop offset="0.8363" style="stop-color:#055B7D"/>
      <stop offset="1" style="stop-color:#055B7D"/>
    </linearGradient>
    <linearGradient id="SVGID_6_" gradientUnits="userSpaceOnUse" x1="415.2769" y1="255.0652" x2="516.4709" y2="255.0652">
      <stop offset="0.1443" style="stop-color:#19BAE5"/>
      <stop offset="0.3443" style="stop-color:#0096BD"/>
      <stop offset="0.5687" style="stop-color:#007599"/>
      <stop offset="0.7399" style="stop-color:#026185"/>
      <stop offset="0.8363" style="stop-color:#055B7D"/>
      <stop offset="1" style="stop-color:#055B7D"/>
    </linearGradient>
    <path class="st2" d="M440.73,211.45c8.26-4.19,16.25-6.29,24-6.29c22.1,0,36.76,9.97,44,29.9l-76.57,35.81 c-0.13,0-0.19,0.06-0.19,0.19v0.19c7.11,15.11,19.17,22.67,36.19,22.67c4.96,0,9.4-0.82,13.34-2.47c3.93-1.65,7.39-3.9,10.38-6.76 c2.98-2.86,5.45-6.25,7.43-10.19c1.96-3.93,3.46-8.13,4.47-12.57l12.19-5.71v1.52c0,6.61-1.37,12.8-4.1,18.57 c-2.73,5.78-6.35,10.79-10.86,15.05c-4.5,4.26-9.74,7.59-15.72,10c-5.97,2.41-12.19,3.62-18.67,3.62 c-19.94,0-34.73-8.63-44.38-25.91c-4.32-7.74-6.48-16.19-6.48-25.33C415.78,234.18,424.09,220.08,440.73,211.45z M428.54,260.4 h0.19l63.05-29.33c0-0.64-0.95-1.97-2.85-4c-3.31-3.68-7.05-6.38-11.24-8.1c-4.19-1.71-8.76-2.57-13.72-2.57 c-5.71,0-10.79,0.92-15.23,2.76c-4.45,1.84-8.2,4.38-11.24,7.62s-5.39,7.11-7.04,11.62c-1.65,4.51-2.47,9.5-2.47,14.95v3.05 C428.22,259.06,428.41,260.4,428.54,260.4z"/>
    <g>
      <g>
        <path class="st3" d="M467.69,357.44c-0.24,1.98-0.39,2.86-2.3,2.86c-2.86,0-3.57-3.17-3.57-5.95c0-0.64,0-1.19,0.08-1.82 c-0.16-1.98-1.43-11.18-1.75-13.17c-0.32-1.11-1.19-6.82-1.9-7.45c-0.32,0-0.55,0.08-0.8,0.08c-2.06,0-4.2-0.87-4.2-3.89 c0-1.35,1.66-2.46,2.7-3.17l0.24-0.16c6.9-4.84,14.52-8.41,22.68-8.41c5.15,0,11.97,1.27,11.97,8.8c0,4.36-2.77,8.88-5.23,11.9 c-1.03,1.35-4.92,5.71-5.47,6.34c-3.41,3.33-8.72,6.58-8.72,8.96c0,2.86,8.01,5.55,13.56,7.38l0.87,0.32 c2.06,0.71,5.23,0.71,5.23,4.12c0,2.38-0.64,2.46-3.01,2.46l-12.69-4.92c-3.01-1.19-5.08-3.01-7.61-4.92 C467.77,357.05,467.69,357.28,467.69,357.44z M466.66,348.32c4.91-5.55,18.96-14.83,18.96-24.03c0-1.98-1.59-2.14-2.7-2.54 c-7.85,0-13.16,1.51-19.75,5.23c-0.47,0.24-0.55,0.4-0.55,0.95c0,0.95,1.11,2.62,1.35,3.65c1.03,5.55,1.51,10.87,2.46,16.34 C466.42,348,466.66,348.24,466.66,348.32z"/>
        <path class="st3" d="M490.2,353.79c0.32-5.87,2.77-12.85,12.45-12.85c4.84,0,9.36,2.06,9.12,6.66 c-0.32,6.03-7.14,13.48-14.75,13.48c-4.2,0-6.03-1.98-6.9-5.08C490.12,355.7,490.12,354.11,490.2,353.79z M497.74,356.25 c3.89,0,7.77-3.96,7.93-7.06c0.16-2.78-2.06-3.73-4.6-3.1C497.18,347.05,494.57,356.25,497.74,356.25z"/>
        <path class="st3" d="M513.76,354.59l4.52-13.64c0.24-0.79,0.95-1.35,1.82-1.35c1.43,0,4.13,0.24,4.13,2.14 c0,1.59-1.9,5.32-1.98,5.39c-0.64,1.9-2.62,6.19-2.62,7.45v0.64c0.08,0,0.55,0.16,0.55,0.16c5.39-2.93,9.36-10.31,16.57-10.31 c5.16,0,4.76,3.97,6.43,7.38c0.55,1.03,2.54,3.49,2.54,4.84c0,1.03-1.11,1.66-2.06,1.66c-5.55,0-6.5-8.48-7.85-8.72 c-0.24,0-1.27,0.4-1.43,0.55c-4.92,2.86-10.55,10.87-15.54,10.87c-2.69,0-5.47-2.3-5.47-4.84 C513.36,355.94,513.44,355.38,513.76,354.59z"/>
        <path class="st3" d="M545.48,346.89c-2.54,0-3.17-1.59-3.17-3.89c0-1.66,3.65-1.51,6.03-2.14c2.14-0.32,5.23,0.47,5.23-3.57 c0-1.19,0.64-10.63,0.8-11.82c0.24-2.14,1.19-7.61,1.35-7.69l0.87-0.87c0,0,0.79-0.08,1.03-0.08c2.7,0,3.57,1.03,3.33,4.2 c-1.43,6.98-2.14,11.42-2.14,17.61l0.55,0.55c10.39,0.16,14.67-0.79,22.84-1.19c2.38-0.08,3.65,0.79,3.65,2.86 c0,1.43-0.87,3.41-2.77,3.17c0.47,0-5.63-0.48-10.47-0.48h-2.38c-6.1,0-11.26,0.24-11.26,2.06c0,2.54,1.43,9.28,5.39,9.28 c3.49,0,5.39-3.09,7.85-3.09c1.19,0,1.66,0.55,1.66,1.75c0,4.92-5.55,6.58-9.67,6.58c-10.47,0-9.6-14.35-11.34-14.35 C550.39,345.86,547.93,346.89,545.48,346.89z"/>
        <path class="st3" d="M585.99,345.55l7.45-4.68c1.35-0.64,3.41-1.19,5-1.19c2.69,0,5.47,1.19,5.47,4.36 c0,5.08-8.17,10.15-11.82,12.37c3.01,4.92,12.85,0.79,12.85,4.21c0,1.58-2.38,3.41-5.87,3.41c-11.1,0-16.65-7.53-16.65-13.24 C582.42,348.8,584.33,346.58,585.99,345.55z M588.61,351.89c1.19,0,9.28-4.84,9.28-6.74c-1.91,0-9.68,3.65-9.68,6.11 C588.21,351.42,588.21,351.89,588.61,351.89z"/>
      </g>
    </g>
    <g>
      <path class="st4" d="M441.57,158.19c-8.48-5.36-19.71-2.82-25.07,5.66c-5.36,8.49-1.78,36.85-1.78,36.85s27.15-8.96,32.5-17.44 C452.59,174.77,450.05,163.55,441.57,158.19z M426.19,182.54c-4.21-2.66-5.47-8.23-2.81-12.44c2.66-4.21,8.23-5.47,12.44-2.81 c4.21,2.66,5.47,8.23,2.81,12.44C435.97,183.94,430.4,185.2,426.19,182.54z"/>
      <path class="st4" d="M414.72,200.7c0,0,27.15-8.96,32.5-17.44c5.36-8.49,2.82-19.71-5.66-25.07l-5.74,9.1 c4.21,2.66,5.47,8.23,2.81,12.44c-2.66,4.21-8.23,5.47-12.44,2.81L414.72,200.7z"/>
    </g>
  </g>
</svg>